<svg width="44" height="44" viewBox="0 0 44 44" fill="none" xmlns="http://www.w3.org/2000/svg">
<g clip-path="url(#clip0_33_66)">
<path fill-rule="evenodd" clip-rule="evenodd" d="M2.75 22C2.75 27.1054 4.77812 32.0017 8.38819 35.6118C11.9983 39.2219 16.8946 41.25 22 41.25C27.1054 41.25 32.0017 39.2219 35.6118 35.6118C39.2219 32.0017 41.25 27.1054 41.25 22C41.25 16.8946 39.2219 11.9983 35.6118 8.38819C32.0017 4.77812 27.1054 2.75 22 2.75C16.8946 2.75 11.9983 4.77812 8.38819 8.38819C4.77812 11.9983 2.75 16.8946 2.75 22ZM44 22C44 27.8348 41.6822 33.4305 37.5564 37.5564C33.4305 41.6822 27.8348 44 22 44C16.1652 44 10.5695 41.6822 6.44365 37.5564C2.31785 33.4305 0 27.8348 0 22C0 16.1652 2.31785 10.5695 6.44365 6.44365C10.5695 2.31785 16.1652 0 22 0C27.8348 0 33.4305 2.31785 37.5564 6.44365C41.6822 10.5695 44 16.1652 44 22ZM16.0985 29.7083C15.8407 29.9664 15.4908 30.1116 15.126 30.1119C14.7611 30.1121 14.4111 29.9674 14.1529 29.7096C13.8947 29.4518 13.7495 29.102 13.7492 28.7371C13.749 28.3722 13.8937 28.0222 14.1515 27.764L25.4183 16.5H17.8062C17.4416 16.5 17.0918 16.3551 16.834 16.0973C16.5761 15.8394 16.4312 15.4897 16.4312 15.125C16.4312 14.7603 16.5761 14.4106 16.834 14.1527C17.0918 13.8949 17.4416 13.75 17.8062 13.75H28.7375C29.1022 13.75 29.4519 13.8949 29.7098 14.1527C29.9676 14.4106 30.1125 14.7603 30.1125 15.125V26.0563C30.1125 26.4209 29.9676 26.7707 29.7098 27.0285C29.4519 27.2864 29.1022 27.4313 28.7375 27.4313C28.3728 27.4313 28.0231 27.2864 27.7652 27.0285C27.5074 26.7707 27.3625 26.4209 27.3625 26.0563V18.4443L16.0985 29.7083Z" fill="black"/>
</g>
<defs>
<clipPath id="clip0_33_66">
<rect width="44" height="44" fill="white"/>
</clipPath>
</defs>
</svg>
