<svg width="48" height="48" viewBox="0 0 48 48" fill="none" xmlns="http://www.w3.org/2000/svg">
<path d="M12 7.99998C8.948 12.517 6.013 13.81 4 13C4.543 14.833 8.443 17.375 10.927 18.838C11.997 19.468 12.31 20.903 11.565 21.897C10.202 23.717 8.315 26.289 8 27C0.954 39.79 16.482 44.648 24 44C46.144 42.092 45.355 24.803 42 18C33.948 31.994 21.519 23.915 22 21C22.481 18.085 25.792 18.665 27 14C29.013 4.76798 16.374 0.398985 12 7.99998Z" stroke="black" stroke-width="2" stroke-linecap="round" stroke-linejoin="round"/>
<path d="M19 31C21.5 34.5 29 38 35 33" stroke="black" stroke-width="2" stroke-linecap="round" stroke-linejoin="round"/>
<path d="M17 14C18.1046 14 19 13.1046 19 12C19 10.8954 18.1046 10 17 10C15.8954 10 15 10.8954 15 12C15 13.1046 15.8954 14 17 14Z" fill="black"/>
</svg>
